<svg width="20" height="17" viewBox="0 0 20 17" fill="none" xmlns="http://www.w3.org/2000/svg">
<path d="M2 2.5L10.2286 8.5L17.9999 2.5M19 4.69995V12.3C19 13.4201 19.0002 13.9802 18.7822 14.408C18.5905 14.7844 18.2841 15.0902 17.9078 15.282C17.48 15.5 16.9203 15.5 15.8002 15.5H4.2002C3.08009 15.5 2.51962 15.5 2.0918 15.282C1.71547 15.0902 1.40973 14.7844 1.21799 14.408C1 13.9802 1 13.4201 1 12.3V4.69995C1 3.57985 1 3.01986 1.21799 2.59204C1.40973 2.21572 1.71547 1.90973 2.0918 1.71799C2.51962 1.5 3.08009 1.5 4.2002 1.5H15.8002C16.9203 1.5 17.48 1.5 17.9078 1.71799C18.2841 1.90973 18.5905 2.21572 18.7822 2.59204C19.0002 3.01986 19 3.57985 19 4.69995Z" stroke="white" stroke-width="2" stroke-linecap="round" stroke-linejoin="round"/>
</svg>
